<svg xmlns="http://www.w3.org/2000/svg" width="1600" height="980" viewBox="0 0 1600 980" role="img" aria-labelledby="title desc">
  <title id="title">STEMTune Architecture</title>
  <desc id="desc">A professional architecture diagram showing the operator layer, framework control plane, training recipes, and resulting artifacts.</desc>
  <defs>
    <linearGradient id="bg" x1="0" x2="0" y1="0" y2="1">
      <stop offset="0%" stop-color="#f8fafc"/>
      <stop offset="100%" stop-color="#eef2f7"/>
    </linearGradient>
    <filter id="shadow" x="-10%" y="-10%" width="120%" height="120%">
      <feDropShadow dx="0" dy="10" stdDeviation="14" flood-color="#0f172a" flood-opacity="0.10"/>
    </filter>
    <marker id="arrow" markerWidth="12" markerHeight="12" refX="10" refY="6" orient="auto">
      <path d="M 0 0 L 12 6 L 0 12 z" fill="#475569"/>
    </marker>
    <style>
      .title { font: 700 34px 'IBM Plex Sans', 'Segoe UI', Arial, sans-serif; fill: #0f172a; }
      .subtitle { font: 500 16px 'IBM Plex Sans', 'Segoe UI', Arial, sans-serif; fill: #475569; }
      .section { font: 700 18px 'IBM Plex Sans', 'Segoe UI', Arial, sans-serif; fill: #0f172a; letter-spacing: 0.04em; }
      .box-title { font: 700 22px 'IBM Plex Sans', 'Segoe UI', Arial, sans-serif; fill: #0f172a; }
      .box-copy { font: 500 16px 'IBM Plex Sans', 'Segoe UI', Arial, sans-serif; fill: #334155; }
      .small { font: 600 14px 'IBM Plex Sans', 'Segoe UI', Arial, sans-serif; fill: #475569; }
      .chip { font: 700 13px 'IBM Plex Sans', 'Segoe UI', Arial, sans-serif; fill: #0f172a; }
      .recipe { font: 700 18px 'IBM Plex Sans', 'Segoe UI', Arial, sans-serif; fill: #0f172a; }
      .label { font: 600 13px 'IBM Plex Sans', 'Segoe UI', Arial, sans-serif; fill: #475569; letter-spacing: 0.06em; }
    </style>
  </defs>

  <rect x="0" y="0" width="1600" height="980" fill="url(#bg)"/>
  <rect x="38" y="34" width="1524" height="912" rx="26" fill="#ffffff" stroke="#dbe3ee" stroke-width="2"/>

  <text x="88" y="108" class="title">STEMTune Architecture</text>
  <text x="88" y="138" class="subtitle">Operator-facing control layer for selecting models, scaffolding projects, and routing practitioners into reusable alignment recipes.</text>

  <text x="110" y="198" class="section">OPERATOR LAYER</text>
  <text x="540" y="198" class="section">CONTROL PLANE</text>
  <text x="1020" y="198" class="section">RECIPE LIBRARY</text>

  <rect x="88" y="226" width="320" height="214" rx="22" fill="#eff6ff" stroke="#bfdbfe" stroke-width="2" filter="url(#shadow)"/>
  <text x="120" y="272" class="box-title">CLI Entry Points</text>
  <text x="120" y="306" class="box-copy">`python -m stemtune list-tasks`</text>
  <text x="120" y="338" class="box-copy">`python -m stemtune recommend ...`</text>
  <text x="120" y="370" class="box-copy">`python -m stemtune show-task ...`</text>
  <text x="120" y="402" class="box-copy">`python -m stemtune init-project ...`</text>

  <rect x="88" y="472" width="320" height="284" rx="22" fill="#ecfeff" stroke="#99f6e4" stroke-width="2" filter="url(#shadow)"/>
  <text x="120" y="518" class="box-title">Practitioner Workspace</text>
  <text x="120" y="552" class="box-copy">Generated project scaffold with:</text>
  <text x="120" y="586" class="box-copy">- dataset manifest</text>
  <text x="120" y="618" class="box-copy">- knowledge-base manifest</text>
  <text x="120" y="650" class="box-copy">- training and publishing configs</text>
  <text x="120" y="682" class="box-copy">- environment template</text>
  <text x="120" y="714" class="box-copy">- project runbook</text>

  <rect x="480" y="226" width="348" height="214" rx="22" fill="#f8fafc" stroke="#cbd5e1" stroke-width="2" filter="url(#shadow)"/>
  <text x="512" y="272" class="box-title">Selection and Guidance</text>
  <text x="512" y="306" class="box-copy">`model_catalog.json`</text>
  <text x="512" y="338" class="box-copy">Task heuristics and VRAM-aware ranking</text>
  <text x="512" y="370" class="box-copy">Operational playbooks and task guides</text>
  <text x="512" y="402" class="box-copy">Model references and recipe mapping</text>

  <rect x="480" y="472" width="348" height="284" rx="22" fill="#fff7ed" stroke="#fdba74" stroke-width="2" filter="url(#shadow)"/>
  <text x="512" y="518" class="box-title">Config Contracts</text>
  <text x="512" y="552" class="box-copy">`configs/dataset.json`</text>
  <text x="512" y="584" class="box-copy">`configs/knowledge_base.json`</text>
  <text x="512" y="616" class="box-copy">`configs/training.json`</text>
  <text x="512" y="648" class="box-copy">`configs/publish.json`</text>
  <text x="512" y="694" class="small">Neutral, practitioner-owned manifests</text>
  <text x="512" y="718" class="small">No dependency on course-specific HF accounts</text>

  <rect x="924" y="226" width="552" height="530" rx="22" fill="#f8fafc" stroke="#cbd5e1" stroke-width="2" filter="url(#shadow)"/>
  <text x="956" y="272" class="box-title">Reusable Recipe Families</text>
  <text x="956" y="304" class="box-copy">Existing code is preserved as a recipe library rather than a fixed project structure.</text>

  <rect x="958" y="342" width="220" height="88" rx="16" fill="#dbeafe" stroke="#93c5fd" stroke-width="1.6"/>
  <text x="990" y="395" class="recipe">SFT</text>

  <rect x="1210" y="342" width="220" height="88" rx="16" fill="#e0f2fe" stroke="#7dd3fc" stroke-width="1.6"/>
  <text x="1242" y="395" class="recipe">MCQA</text>

  <rect x="958" y="456" width="220" height="88" rx="16" fill="#ede9fe" stroke="#c4b5fd" stroke-width="1.6"/>
  <text x="990" y="509" class="recipe">DPO</text>

  <rect x="1210" y="456" width="220" height="88" rx="16" fill="#fef3c7" stroke="#fcd34d" stroke-width="1.6"/>
  <text x="1242" y="509" class="recipe">Quantization</text>

  <rect x="1084" y="570" width="220" height="88" rx="16" fill="#dcfce7" stroke="#86efac" stroke-width="1.6"/>
  <text x="1116" y="623" class="recipe">RAG</text>

  <rect x="924" y="794" width="552" height="108" rx="22" fill="#f0fdf4" stroke="#86efac" stroke-width="2" filter="url(#shadow)"/>
  <text x="956" y="838" class="box-title">Outputs and Publication Targets</text>
  <text x="956" y="870" class="box-copy">Processed datasets, indexed corpora, fine-tuned checkpoints, eval artifacts, and practitioner-owned Hub repositories.</text>

  <path d="M 408 334 C 438 334, 450 334, 480 334" fill="none" stroke="#475569" stroke-width="3" marker-end="url(#arrow)"/>
  <path d="M 408 614 C 438 614, 450 614, 480 614" fill="none" stroke="#475569" stroke-width="3" marker-end="url(#arrow)"/>
  <path d="M 828 334 C 862 334, 884 334, 924 334" fill="none" stroke="#475569" stroke-width="3" marker-end="url(#arrow)"/>
  <path d="M 828 614 C 870 614, 892 614, 924 614" fill="none" stroke="#475569" stroke-width="3" marker-end="url(#arrow)"/>
  <path d="M 1068 430 L 1068 456" fill="none" stroke="#64748b" stroke-width="2.5" marker-end="url(#arrow)"/>
  <path d="M 1320 430 L 1320 456" fill="none" stroke="#64748b" stroke-width="2.5" marker-end="url(#arrow)"/>
  <path d="M 1068 544 C 1068 566, 1100 566, 1122 570" fill="none" stroke="#64748b" stroke-width="2.5" marker-end="url(#arrow)"/>
  <path d="M 1320 544 C 1320 566, 1286 566, 1266 570" fill="none" stroke="#64748b" stroke-width="2.5" marker-end="url(#arrow)"/>
  <path d="M 1194 658 L 1194 794" fill="none" stroke="#475569" stroke-width="3" marker-end="url(#arrow)"/>

  <rect x="105" y="812" width="176" height="34" rx="17" fill="#dbeafe"/>
  <text x="136" y="834" class="chip">operator commands</text>
  <rect x="292" y="812" width="166" height="34" rx="17" fill="#ecfeff"/>
  <text x="327" y="834" class="chip">project scaffolding</text>
  <rect x="472" y="812" width="150" height="34" rx="17" fill="#fff7ed"/>
  <text x="505" y="834" class="chip">config contracts</text>

  <text x="88" y="900" class="label">FIGURE 1</text>
  <text x="170" y="900" class="small">STEMTune turns repository knowledge into a control layer: model selection, project scaffolding, and config-driven routing into reusable training recipes.</text>
</svg>
